# xmcd
#
# Track frame offsets: 
#        150
#        14245
#        28917
#        40812
#        55640
#        72610
#        87120
#        97235
#        117080
#        131040
#        151632
#        163315
#        176737
#        196422
#        211885
#        227982
#        244010
#        261470
#        274955
#        287390
#
# Disc length: 4046 seconds
#
# Revision: 1
# Processed by: cddbd v1.5.2PL0 Copyright (c) Steve Scherf et al.
# Submitted via: ExactAudioCopyFreeDBPlugin 1.0
#
DISCID=2d0fcc14
DTITLE=P.P. Arnold - The Best Of
DYEAR=1999
DGENRE=Soul
TTITLE0=Everything's Gonna Be Alright
TTITLE1=The First Cut Is The Deepest
TTITLE2=The Time Has Come
TTITLE3=(If You Think You're) Groovy
TTITLE4=Life Is But Nothing
TTITLE5=Angel Of The Morning
TTITLE6=Speak To Me
TTITLE7=Though It Hurts Me Badly
TTITLE8=Born To Be Together
TTITLE9=Am I Still Dreaming?
TTITLE10=Treat Me Like A Lady
TTITLE11=Would You Believe
TTITLE12=Letter To Bill
TTITLE13=God Only Knows
TTITLE14=Eleanor Rigby
TTITLE15=Yesterday
TTITLE16=It'll Never Happen Again
TTITLE17=As Tears Go By
TTITLE18=To Love Somebody
TTITLE19=Welcome Home
EXTD=
EXTT0=
EXTT1=
EXTT2=
EXTT3=
EXTT4=
EXTT5=
EXTT6=
EXTT7=
EXTT8=
EXTT9=
EXTT10=
EXTT11=
EXTT12=
EXTT13=
EXTT14=
EXTT15=
EXTT16=
EXTT17=
EXTT18=
EXTT19=
PLAYORDER=
